<svg xmlns="http://www.w3.org/2000/svg" width="2889" height="1017" viewBox="0 0 321 113">
  <defs>
    <style>
      .cls-1, .cls-2 {
        fill: #9fd356;
      }

      .cls-1, .cls-2, .cls-3 {
        fill-rule: evenodd;
      }

      .cls-2 {
        stroke: #9fd356;
      }

      .cls-2, .cls-3 {
        stroke-width: 1px;
      }

      .cls-3 {
        fill: #3c91e6;
        stroke: #3c91e6;
      }
    </style>
  </defs>
  <path id="Эллипс_1" data-name="Эллипс 1" class="cls-1" d="M164,7a5,5,0,1,1-5,5A5,5,0,0,1,164,7ZM140,31a5,5,0,1,1-5,5A5,5,0,0,1,140,31Zm24,24a5,5,0,1,1-5,5A5,5,0,0,1,164,55Zm24-24a5,5,0,1,1-5,5A5,5,0,0,1,188,31Z"/>
  <path id="RADAR" class="cls-2" d="M181.015,106.9h7.343V94.243h3.669L196.5,106.9h7.993l-6.144-13.992q4.7-2.437,4.7-8.437a10.91,10.91,0,0,0-.942-4.605,8.21,8.21,0,0,0-5.9-4.687,30.724,30.724,0,0,0-4.687-.27h-10.5V106.9ZM191.3,80.087a6.563,6.563,0,0,1,2.484.363,3.363,3.363,0,0,1,1.481,1.383,4.867,4.867,0,0,1,.636,2.613q0,4.618-4.307,4.617h-3.231V80.087H191.3ZM208.7,106.9h6.747l1.639-6.609h9.411l1.666,6.609h7.51l-9.546-31.992H218.73Zm9.8-12.093L221.734,81.7l3.376,13.107H218.5ZM239.959,106.9h8.787a23.122,23.122,0,0,0,6-.656,9.585,9.585,0,0,0,4.308-2.578,13.891,13.891,0,0,0,3.084-5.262,23.008,23.008,0,0,0,1.175-7.652q0-6.07-1.934-9.633a10.351,10.351,0,0,0-5.152-4.887,22.251,22.251,0,0,0-8.359-1.324h-7.906V106.9Zm8.595-26.508a7.718,7.718,0,0,1,3.793.786,5.86,5.86,0,0,1,2.308,2.992,16.931,16.931,0,0,1,.92,6.288,21,21,0,0,1-.835,6.746,6.348,6.348,0,0,1-2.234,3.273,7.055,7.055,0,0,1-3.952.939H247.3V80.392h1.252Zm15.7,26.508H271l1.639-6.609h9.411l1.666,6.609h7.51l-9.546-31.992h-7.391Zm9.8-12.093L277.29,81.7l3.376,13.107h-6.615ZM295.516,106.9h7.342V94.243h3.669L311,106.9h7.992l-6.143-13.992q4.7-2.437,4.7-8.437a10.91,10.91,0,0,0-.942-4.605,8.21,8.21,0,0,0-5.9-4.687,30.733,30.733,0,0,0-4.687-.27h-10.5V106.9ZM305.8,80.087a6.563,6.563,0,0,1,2.484.363,3.368,3.368,0,0,1,1.481,1.383,4.867,4.867,0,0,1,.636,2.613q0,4.618-4.308,4.617h-3.231V80.087H305.8Z"/>
  <path id="CHARITY" class="cls-3" d="M14.6,101.673a4.067,4.067,0,0,1-3.765-2.215q-1.255-2.215-1.255-8.121,0-6.609,1.366-8.906a4.137,4.137,0,0,1,3.678-2.3q4.4,0,4.675,7.125L26,87c-0.624-8.25-4.392-12.585-11.4-12.585q-6.348,0-9.571,4.383T1.809,90.938q0,7.688,3.248,12.071t9.448,4.383a10.766,10.766,0,0,0,8.193-3.27c2.067-2.18,3.055-5.653,3.3-9.122l-6.648.251q-0.714,6.422-4.749,6.422h0ZM30,106.9h7.381V93.821h8.07V106.9h7.381V74.907H45.454V87.821h-8.07V74.907H30V106.9Zm26.527,0h6.782l1.647-6.609h9.46L76.1,106.9h7.549l-9.6-31.992H66.618Zm9.851-12.093L69.637,81.7l3.394,13.107h-6.65ZM87.953,106.9h7.382V94.243h3.688l4.493,12.656h8.034l-6.176-13.992Q110.1,90.47,110.1,84.47a10.865,10.865,0,0,0-.947-4.605,7.948,7.948,0,0,0-2.62-3.234,8.033,8.033,0,0,0-3.31-1.453,31.049,31.049,0,0,0-4.712-.27H87.953V106.9ZM98.287,80.087a6.629,6.629,0,0,1,2.5.363,3.378,3.378,0,0,1,1.489,1.383,4.849,4.849,0,0,1,.64,2.613q0,4.618-4.331,4.617H95.334V80.087h2.953ZM115.916,106.9H123.3V74.907h-7.381V106.9Zm11.469-25.992h6.692V106.9h7.382V80.907h6.864v-6H127.385v6ZM160.1,93.376V106.9h7.382V93.376l9.325-18.469H169.6l-5.069,11.662-4.739-11.662h-8.13Z"/>
  <path id="Эллипс_3_копия_3" data-name="Эллипс 3 копия 3" class="cls-3" d="M171.523,57.844c-0.537-.538-1.039-1.09-1.523-1.646h0q-0.615-.708-1.171-1.43l-0.015-.02q-0.544-.708-1.03-1.424l-0.012-.017q-0.487-.72-0.915-1.442a0,0,0,0,0,0,0q-0.43-.728-0.8-1.454h0A4.2,4.2,0,0,1,162,50a16.849,16.849,0,0,1-.81,1.544h0c-0.083.147-.167,0.293-0.254,0.44h0c-0.374.634-.772,1.267-1.216,1.9h0l0,0h0c-0.438.62-.92,1.233-1.422,1.841l0,0h0c-0.308.373-.623,0.743-0.954,1.108-0.346.385-.7,0.767-1.078,1.142-7.037,7.048-15.911,9.587-19.82,5.672s-1.374-12.8,5.663-19.851c0.587-.588,1.19-1.132,1.8-1.656h0c0.754-.649,1.519-1.26,2.293-1.807h0c0.629-.445,1.261-0.843,1.894-1.217h0c0.106-.063.212-0.124,0.318-0.184h0c0.668-.383,1.335-0.74,2-1.042a4.011,4.011,0,0,1-.714-3.995,26.776,26.776,0,0,1-3.851-2.333h0c-0.055-.04-0.109-0.083-0.164-0.123h0q-0.789-.579-1.564-1.232h0l-0.065-.055h0c-0.69-.583-1.373-1.193-2.036-1.857-7.037-7.048-9.572-15.935-5.663-19.851s12.783-1.376,19.82,5.672c0.655,0.656,1.257,1.332,1.833,2.015h0l0.031,0.037h0q0.584,0.693,1.108,1.4h0l0.065,0.086a27.33,27.33,0,0,1,2.4,3.845,3.985,3.985,0,0,1,4.783-.077,29.615,29.615,0,0,1,5.445-7.4c7.037-7.048,15.911-9.587,19.82-5.672s1.374,12.8-5.663,19.851a29.575,29.575,0,0,1-7.385,5.454,4.005,4.005,0,0,1-.007,4.706h0a27.663,27.663,0,0,1,3.654,2.338h0l0.187,0.14h0q0.612,0.467,1.215.977h0l0.275,0.232h0c0.592,0.512,1.179,1.043,1.75,1.615,7.037,7.048,9.572,15.935,5.663,19.851S178.56,64.892,171.523,57.844ZM173,44c-1.078,1.08.482,6.476,4,10s8.55,5.766,9.628,4.686S185.518,52.524,182,49,174.078,42.92,173,44ZM142,59c-1.078-1.08.482-6.476,4-10s8.55-5.766,9.628-4.686S154.518,50.476,151,54,143.078,60.08,142,59Zm23.414-28.657,4.243,4.243a2,2,0,0,1,0,2.828l-4.243,4.243a2,2,0,0,1-2.828,0l-4.243-4.243a2,2,0,0,1,0-2.828l4.243-4.243A2,2,0,0,1,165.414,30.343ZM186,13c1.078,1.08-.482,6.476-4,10s-8.55,5.766-9.628,4.686S173.482,21.524,177,18,184.922,11.92,186,13Zm-44,0c-1.078,1.08.482,6.476,4,10s8.55,5.766,9.628,4.686S154.518,21.524,151,18,143.078,11.92,142,13Z"/>
</svg>
